<svg width="23" height="22" viewBox="0 0 23 22" fill="none" xmlns="http://www.w3.org/2000/svg">
<path d="M19.2146 10.0833H3.78542C3.28261 10.0833 2.875 10.4731 2.875 10.9541V11.0458C2.875 11.5267 3.28261 11.9166 3.78542 11.9166H19.2146C19.7174 11.9166 20.125 11.5267 20.125 11.0458V10.9541C20.125 10.4731 19.7174 10.0833 19.2146 10.0833Z" fill="white"/>
<path d="M19.2146 14.6667H3.78542C3.28261 14.6667 2.875 15.0566 2.875 15.5376V15.6292C2.875 16.1102 3.28261 16.5001 3.78542 16.5001H19.2146C19.7174 16.5001 20.125 16.1102 20.125 15.6292V15.5376C20.125 15.0566 19.7174 14.6667 19.2146 14.6667Z" fill="white"/>
<path d="M19.2146 5.5H3.78542C3.28261 5.5 2.875 5.88989 2.875 6.37083V6.4625C2.875 6.94345 3.28261 7.33333 3.78542 7.33333H19.2146C19.7174 7.33333 20.125 6.94345 20.125 6.4625V6.37083C20.125 5.88989 19.7174 5.5 19.2146 5.5Z" fill="white"/>
</svg>
